Patient4_TMGait_0pt3_01_right_13_EMG.mot
version=1
nRows=40
nColumns=33
inDegrees=no
endheader
time	1LAddLong	2LGlutMax	3LGlutMed	4LIliopsoas	5LSemiMemb	6LBicFemLong	7LRecFem	8LVastMed	9LVastLat	10LGasMed	11LTibAnt	12lTibPost	13LPeroneusLong	14LSol	15LExtDigLong	16LFlexDigLong	17RAddLong	18RGlutMax	19RGlutMed	20RIliopsoas	21RSemiMemb	22RBicFemLong	23RRecFem	24RVastMed	25RVastLat	26RGasMed	27RTibAnt	28RTibPost	29RPeroneusLong	30RSol	31RExtDigLong	32RFlexDigLong
23.23	0.007782	-0.002289	0.11856	-0.009308	-0.002747	0.72617	0.011139	0.000458	0.11917	0.016937	-0.013733	0.003967	0.10498	-0.1828	-0.047913	-0.024719	0.000916	0.020294	1.2169	-0.13977	0.1442	-0.001678	0.15045	0.072327	0.017242	0.00473	-0.98267	0.001373	-0.103	-0.14893	-0.001526	-0.000153
23.231	-0.002136	0.004578	0.095825	0.014038	-0.001526	0.49591	0.0914	0.000305	0.078583	-0.028992	0.011902	0.00412	0.081177	0.014191	0.040741	-0.006409	-0.019531	-0.016327	1.2415	-0.10544	0.14221	-0.036316	0.18448	0.065155	-0.004425	0.002289	-0.67978	0.00351	0.19791	-0.18784	-0.000763	0.000763
23.232	-0.001526	0.003052	0.042114	0.000916	0.006409	0.005646	0.035858	0.010071	-0.01358	-0.029907	0.004425	0.001526	0.12924	-0.02655	0.058899	0.040436	-0.005493	-0.007324	0.99594	-0.14465	0.13672	-0.036621	0.17822	0.073547	0.001831	0.001221	-0.58731	0.000153	0.09552	-0.079041	-0.003662	-0.010223
23.233	-0.003967	0.0737	-0.042419	0.00885	0.007935	-0.2269	0.044861	0.006409	-0.032196	0.005951	0.02655	0.005341	0.21042	0.04364	0.003815	0.077972	-0.00824	-0.007935	1.0017	-0.12528	0.12665	-0.036926	0.1976	0.050507	-0.017242	-0.014801	-0.45105	0.001831	0.1445	0.005035	0.001373	-0.009308
23.234	-0.007019	0.04715	-0.051575	0.011749	0.005493	-0.53635	0.1294	-0.001526	-0.044098	0.019836	0.041199	0.009613	-0.21729	0.2269	-0.055695	0.059357	-0.012512	0.026093	0.91736	-0.042725	0.14221	-0.046082	0.17303	0.042877	-0.034027	-0.007782	0.34515	-0.00473	0.21652	0.046387	-0.001526	-0.004883
23.235	-0.001526	0.054932	-0.020752	0.0177	0.009155	-1.0727	0.25986	0.003967	-0.024567	0.0914	0.010071	-0.003204	0.033417	0.24246	-0.10727	0.078583	0.001221	-0.037537	1.0611	-0.000458	0.14191	-0.06073	0.18951	0.051575	-0.050964	-0.013885	0.4631	-0.00351	-0.21545	0.027618	-0.003204	-0.017853
23.236	-0.010223	0.047455	-0.067139	0.016174	0.013275	-0.89813	0.31143	0.024414	-0.042419	0.14465	-0.055084	0.00412	0.29327	0.26932	-0.043488	0.046997	0.010986	-0.033722	1.0072	-0.021973	0.13855	-0.068665	0.19547	0.053253	-0.026093	-0.018616	0.6163	0.003357	-0.495	-0.042725	0.004272	-0.020599
23.237	-0.005341	0.069733	-0.034637	-0.016022	0.00061	-0.59616	0.29236	0.035858	-0.055389	0.1384	-0.058136	0.003815	0.19852	0.25787	0.059509	0.024261	0.046234	0.020599	1.0089	-0.1181	0.12817	-0.032043	0.13702	-0.020752	-0.019531	-0.008545	1.0542	-0.006409	-0.14206	0.02182	-0.004883	-0.009155
23.238	0.000763	0.08255	0.034027	0.014191	0.016937	-0.12268	0.16602	0.028229	0.035706	0.053711	-0.034485	-0.002289	0.40726	0.21484	0.11261	0.022888	0.049744	0.023499	0.88272	-0.020447	0.12848	-0.01297	0.1236	-0.003967	-0.001221	-0.002441	0.58258	0.000305	-0.055847	0.1294	-0.007477	-0.002747
23.239	0.01358	0.058136	-0.010681	0.01236	0.016174	-0.098877	0.15213	0.03418	0.039825	-0.066376	-0.003052	0.004425	-0.1059	0.15762	0.12161	0.002747	0.027618	0.00885	0.90942	0.20935	0.12299	0.007324	0.15656	0.000153	-0.004883	-0.001373	-0.035858	-0.000763	-0.074463	0.13702	-0.005188	-0.002747
23.24	0.002136	0.022125	-0.090332	0.015869	0.010529	-0.27222	0.22888	0.021515	0.046387	-0.027008	0.014191	0.004272	-0.026093	0.2063	-0.036621	0.003204	0.023956	-0.063019	1.1456	0.26535	0.14191	0.013885	0.12451	0.029144	0.010223	-0.000305	-0.63812	-0.00473	-0.17716	0.10086	-0.001526	0.002747
23.241	0.005035	0.037079	-0.15335	0.04776	0.009918	-0.05661	0.33112	0.002289	0.025177	-0.027924	0.010223	0.000763	0.45776	0.21072	-0.19318	-0.000916	0	-0.033417	1.0329	0.21515	0.14587	0.017853	0.11276	0.013885	0.021667	-0.001068	-0.71365	-0.005035	0.11505	0.094604	-0.002747	0.000763
23.242	0.003815	0.044708	-0.1059	0.010529	0.00824	0.19333	0.27237	0.030365	-0.027771	-0.013428	0.019989	-0.002136	0.035248	0.2533	-0.22842	-0.003204	-0.024109	-0.059509	1.0384	0.11246	0.13779	0.025024	0.14038	0.023499	0.001526	-0.007935	-0.25543	-0.003204	0.032806	0.15259	0.001831	0.002136
23.243	-0.000458	0.065002	0.10468	-0.017242	-0.001678	0.2272	0.21851	0.018311	0.017242	-0.032959	-0.014496	-0.001526	0.063171	0.31143	-0.039368	-0.049438	-0.054932	-0.045929	1.1127	-0.046387	0.14404	0.013733	0.1181	-0.006256	0.020752	-0.008087	-0.063934	-0.001068	-0.1268	0.112	-0.006866	-0.00061
23.244	-0.000305	0.059052	0.10925	-0.011902	-0.005493	0.21103	0.22415	0.003815	-0.016785	-0.075378	-0.005188	-0.002289	-0.40848	0.27939	0.15671	0.002747	-0.090637	-0.042267	1.0677	-0.043488	0.13138	-0.013733	0.16113	0.054169	0.015717	0	-0.021362	0.000305	-0.050354	0.050354	-0.006409	-0.000458
23.245	0.014801	0.020752	0.1207	0.000458	0.001984	0.058289	0.075226	0.02533	-0.026245	-0.021362	-0.005035	0.001373	-0.4689	-0.066681	0.067139	-0.012054	-0.059509	-0.063171	1.0065	-0.06546	0.13351	-0.030518	0.10132	0.089111	0.013885	-0.002899	-0.20432	0.002747	0.074158	0.057373	-0.00473	-0.006714
23.246	0.014343	-0.011139	0.07431	0.014038	0.016022	-0.005951	-0.040741	0.016174	-0.053864	0.054321	0.004578	0.003357	-0.38147	-0.065918	0.048828	-0.028534	-0.007477	-0.066681	0.70618	-0.13046	0.11887	-0.050507	0.13825	0.000153	-0.010376	-0.001831	-0.14618	0.000458	0.19073	0.0354	-0.00473	-0.000763
23.247	0.029144	-0.021515	0.074615	0.039978	0.022736	-0.42282	-0.28107	0.025024	0.057068	0.10605	0.020905	0.00473	0.006104	0.058289	0.056763	-0.030975	0.011902	-0.089874	1.0385	-0.13687	0.10956	-0.071106	0.13641	-0.028229	-0.014801	-0.003662	0.13397	-0.001678	0.22842	0.020599	-0.00061	-0.010376
23.248	0.023651	-0.011292	0.076141	0.001831	0.027771	-0.33691	-0.29404	0.021362	0.23117	0.1236	0.019226	0.009003	-0.10544	0.17914	0.14847	-0.030212	0.017395	-0.063782	1.2173	-0.19943	0.10742	-0.063782	0.15213	-0.025482	-0.039063	-0.012054	0.08316	-0.003357	0.03952	0.056152	-0.002441	-0.006866
23.249	0.023499	0.003967	0.15976	-0.019684	0.017853	0.045776	-0.20447	0.02243	0.26581	0.12238	0.014648	-0.000916	-0.3537	-0.020447	0.12238	-0.068512	0.063324	-0.085602	1.1266	-0.23377	0.11307	-0.070953	0.19898	-0.012817	-0.035095	-0.013428	0.22919	-0.00061	-0.065765	0.035095	-0.002594	-0.015869
23.25	0.021667	-0.024872	0.056305	-0.021057	-0.001526	0.27985	-0.22553	-0.003815	0.27313	0.087128	0.014038	-0.001831	-0.17914	-0.16342	-0.038757	-0.033569	0.054626	-0.036469	1.2056	-0.20813	0.11139	-0.082245	0.18417	0.048676	-0.009766	-0.013123	0.1355	-0.005341	0.10483	-0.042572	-0.001678	-0.013123
23.251	0.014496	-0.024109	-0.016327	-0.007935	-0.006866	0.36011	-0.19821	-0.031433	0.31616	0.098724	-0.016632	-0.045929	-0.051727	-0.177	0.010529	0.10895	0.053558	-0.055389	1.3562	-0.11826	0.12604	-0.082703	0.14877	-0.000153	-0.004272	-0.010223	0.14694	-0.003662	0.17242	-0.037231	-0.000916	-0.018921
23.252	0.068817	-0.036469	-0.052795	0.055237	-0.006714	0.23041	-0.21957	-0.033722	0.26794	0.1358	-0.016174	-0.007782	0.077209	0.25482	0.014038	0.045776	0.090485	-0.10254	1.1758	-0.061493	0.1416	-0.054321	0.15228	-0.012207	-0.002747	-0.021667	0.24612	0.000916	-0.17899	0.059052	-0.004272	-0.012054
23.253	-0.046692	-0.026855	-0.081024	0.037994	0.006714	0.075226	-0.18951	-0.020752	0.31067	0.12207	0.003662	0.08255	-0.12604	0.29419	0.006866	-0.045166	0.080261	-0.12924	0.85129	0.043945	0.13214	-0.046387	0.20416	0.014343	-0.014038	-0.000458	0.39795	0.001068	-0.13718	-0.012817	-0.003662	-0.010834
23.254	-0.006256	0.005646	-0.029755	-0.005188	0.013733	0.28351	-0.069122	0.001831	0.18646	0.028076	-0.1712	0.028992	-0.065002	0.23819	-0.012512	0.010681	0.059204	-0.086365	0.6691	0.12405	0.13748	-0.064087	0.18143	-0.05127	-0.02655	0.008087	0.30853	0.003815	0.28564	-0.16312	-0.002289	0
23.255	0.011749	-0.023499	-0.039673	-0.027924	0.002289	0.38208	-0.019836	0.016022	0.13336	-0.005951	-0.17532	-0.006104	0.036163	-0.20996	-0.036926	0.062866	0.069275	-0.121	0.6192	0.09903	0.11887	-0.088959	0.1413	-0.010681	-0.018005	0.013733	0.10864	0.001678	0.30197	-0.21408	-0.006409	0.001068
23.256	0	0.007172	-0.018005	0.015259	0.000305	0.17273	0.13458	0.012817	0.083771	-0.010223	-0.057831	-0.004883	-0.17914	-0.092316	-0.012817	0.035706	0.061951	-0.12863	0.55679	0.10056	0.11963	-0.071259	0.1593	-0.040283	-0.015106	0.012207	0.54001	-0.000153	0.12466	-0.17761	-0.001678	-0.002747
23.257	0.027618	0.000305	-0.006104	0.039215	0.010071	-0.31906	0.34256	0.014038	-0.29831	-0.057068	0.029144	0.008087	0.11505	0.071716	0.013275	0.026245	0.10773	-0.084381	0.68726	0.014801	0.13687	-0.055237	0.17731	-0.052795	0.007324	0.006714	0.21347	0.005341	0.057068	-0.16266	0.001221	0.001831
23.258	-0.010986	-0.001221	0.02594	0.02594	-0.018311	-0.09079	0.41153	0.010681	-0.52856	-0.021667	0.12924	0.002594	-0.17319	0.17654	0.047607	-0.035706	0.094299	-0.086365	0.87204	-0.090485	0.14084	-0.043793	0.14587	-0.042267	-0.00061	-0.008392	-0.92178	-0.000153	0.008698	0.014343	-0.002136	0.001526
23.259	-0.011292	0.014191	-0.020142	-0.000916	-0.039673	0.13443	0.43106	0.022888	-0.37476	0.034485	0.17075	-0.006866	0.25085	0.22476	0.26001	0.024719	0.00885	-0.094452	0.76248	-0.049744	0.12299	-0.044556	0.14847	-0.054932	0.00412	-0.013885	-0.76202	0.002899	-0.041962	0.15396	-0.00473	-0.003662
23.26	-0.009003	-0.004272	-0.05249	-0.019073	-0.001678	0.080566	0.17136	0.025177	-0.18234	-0.014801	0.046082	-0.006866	0.4808	0.25345	0.2739	0.02655	-0.036316	-0.091858	0.68878	-0.001526	0.11368	-0.037994	0.15106	-0.021667	0.014343	-0.018158	-0.13062	-0.000305	-0.080719	0.1181	-0.003815	-0.00061
23.261	-0.000763	-0.029755	-0.10132	-0.02655	0.020447	0.082703	0.027313	0.007019	-0.057373	-0.019226	0.032806	-0.005035	0.15823	0.024872	-0.54031	0.018463	-0.11047	-0.082245	0.81009	-0.053406	0.098419	-0.021057	0.14954	-0.029144	0.016632	0	0.3122	0.007477	0.033264	-0.026093	-0.001831	-0.001831
23.262	0.005035	0.013428	0.07309	0.004578	-0.003052	0.15823	0.029144	-0.011749	-0.038605	-0.018158	-0.018311	-0.000916	-0.20035	0.052032	-0.35523	0.013275	-0.13977	-0.006256	0.87112	0.040588	0.10773	-0.005646	0.092621	0.014191	0.013123	0.000916	0.30197	0.003052	0.091858	-0.034943	-0.006866	0.003662
23.263	0.001068	0.027161	0.059662	0.020294	0.003357	0.06073	0.092316	-0.018463	0.019836	0.003204	-0.006866	0.000153	-0.063477	-0.062714	-0.14603	0.021667	-0.12848	-0.036774	0.737	0.29327	0.097961	-0.000458	0.084686	0.042267	0.001984	0.001221	-0.63156	0.002441	-0.040588	0.034332	-0.006561	-0.003357
23.264	0.007019	0.037537	0.063171	0.016785	0.018005	-0.16068	0.121	-0.015564	0.033417	0.004883	0.004883	-0.004425	0.34805	-0.18875	-0.029907	0.013123	-0.071106	-0.019836	0.83328	0.21988	0.10681	0.006561	0.14114	0.031433	0.006866	0.001678	-1.0876	0.00885	0.085144	-0.014191	-0.003357	-0.009155
23.265	0.023499	0.050812	0.12558	-0.007172	0.035095	-0.39291	0.041504	0.000305	-0.046997	0.041962	-0.010529	0.007477	0.46768	-0.099945	0.046082	0.026093	-0.02121	0.002136	0.94605	0.25665	0.097809	0.016632	0.065002	-0.010223	0.002747	0.001068	-0.33142	0.00061	0.099335	-0.014801	-0.00412	-0.006714
23.266	0.027771	0.041351	0.051575	0.000458	0.023193	-0.17303	-0.050507	0.022125	-0.13534	0.055847	-0.032654	0.004883	0.06546	0.005341	0.15121	-0.02243	-0.040436	0.007629	0.89172	0.21011	0.098572	0.036011	0.098267	0.021057	-0.007019	0.00412	0.33783	0.000916	0.015106	-0.080719	-0.007629	-0.00473
23.267	0.009613	0.076141	0.026245	0.013275	0.016785	-0.11154	-0.035248	0.017548	-0.13977	0.019989	-0.047455	0.010376	-0.2356	0.010529	0.12787	0.043945	-0.036316	-0.006104	0.76889	0.17105	0.10635	0.058136	0.095367	0.029755	0	0.007629	0.18784	0.000763	0.075684	0.011597	-0.007782	-0.005035
23.268	-0.002136	0.103	0.029144	-0.002747	0.00351	-0.11414	0.077972	0.056915	-0.11932	0.097809	-0.028534	0.011292	-0.26596	-0.037842	0.007935	0.041656	-0.007172	-0.040283	0.75455	0.077972	0.1001	0.052338	0.11871	0.014191	0.002136	0.001984	0.30914	-0.000153	-0.016022	0.019226	-0.002289	-0.005798
23.269	0.008392	0.090942	0.065918	0.000153	-0.00061	-0.085907	0.061951	0.069885	-0.090637	0.18143	-0.050049	-0.10468	0.082397	-0.041351	-0.056458	0.045929	0.065918	0.017242	0.61386	-0.12878	0.095062	0.023041	0.087891	0.042877	0.009155	-0.006256	0.22354	0.001831	-0.065765	-0.021362	-0.002441	-0.007935
